<svg version="1" xmlns="http://www.w3.org/2000/svg" width="402.667" height="402.667" viewBox="0 0 302.000000 302.000000"><path d="M0 151.5V302l150.8-.2 150.7-.3.3-150.3L302 1H0v150.5zm156-64.6c7.8 1.3 16 4.6 22.9 9.2 6 4 7.9 6.5 6.2 8.2-.6.6-2.7-.5-5.8-3.1-10-8.3-20.3-11.7-33.7-10.9-5 .3-10.1.8-11.3 1.2-1.8.6-2.3.3-2.3-.9 0-1.9 1.1-2.5 7.6-3.6 6.9-1.1 10.1-1.1 16.4-.1zm2 69.9c21.8 7.7 30.3 17 30.3 33.2.1 9.9-3.4 17.9-10.7 24.9-9.3 8.7-18.5 12.1-33.3 12.1-9.7 0-12.3-.5-12.3-2.4 0-.8 3.7-1.1 12.2-1.1 16.2-.1 21.5-2 30.9-11.4 8.1-8.2 10.4-13.8 9.7-24.2-.8-11.2-6.9-19-19-24.3-2.9-1.3-11.7-4.4-19.5-7-11.4-3.8-14.3-5.1-14.3-6.6 0-1.6.9-1.5 10.3 1.5 5.6 1.9 12.7 4.2 15.7 5.3z"/></svg>